solid OpenSCAD_Model
  facet normal -0.720095 0.693875 0
    outer loop
      vertex 8.24217 -8 0
      vertex 8.24217 -8 7.61363
      vertex 8.66268 -7.5636 7.61363
    endloop
  endfacet
  facet normal 0 0 -1
    outer loop
      vertex 8.24217 -8 0
      vertex 8.66268 -7.5636 0
      vertex 10.2273 -8 0
    endloop
  endfacet
  facet normal -0.720095 0.693875 0
    outer loop
      vertex 8.24217 -8 0
      vertex 8.66268 -7.5636 7.61363
      vertex 8.66268 -7.5636 0
    endloop
  endfacet
  facet normal 0 -1 0
    outer loop
      vertex 8.24217 -8 0
      vertex 9.1305 -8 7.61363
      vertex 8.24217 -8 7.61363
    endloop
  endfacet
  facet normal 0 -1 0
    outer loop
      vertex 8.24217 -8 0
      vertex 9.30442 -8 7.71716
      vertex 9.1305 -8 7.61363
    endloop
  endfacet
  facet normal 0 -1 0
    outer loop
      vertex 8.24217 -8 0
      vertex 9.40482 -8 7.89647
      vertex 9.30442 -8 7.71716
    endloop
  endfacet
  facet normal 0 -1 0
    outer loop
      vertex 8.24217 -8 0
      vertex 9.48602 -8 8.17358
      vertex 9.40482 -8 7.89647
    endloop
  endfacet
  facet normal 0 -1 0
    outer loop
      vertex 8.24217 -8 0
      vertex 9.65307 -8 8.58672
      vertex 9.48602 -8 8.17358
    endloop
  endfacet
  facet normal 0 -1 0
    outer loop
      vertex 8.24217 -8 0
      vertex 9.80262 -8 9.00894
      vertex 9.65307 -8 8.58672
    endloop
  endfacet
  facet normal 0 -1 0
    outer loop
      vertex 8.24217 -8 0
      vertex 10.2273 -8 0
      vertex 9.80262 -8 9.00894
    endloop
  endfacet
  facet normal 0 0 1
    outer loop
      vertex 8.24217 -8 7.61363
      vertex 9.1305 -8 7.61363
      vertex 8.66268 -7.5636 7.61363
    endloop
  endfacet
  facet normal 0 1 0
    outer loop
      vertex 8.25132 8 0
      vertex 8.25132 8 7.61363
      vertex 10.2421 8 7.61363
    endloop
  endfacet
  facet normal -0.693874 -0.720096 0
    outer loop
      vertex 8.25132 8 0
      vertex 8.37627 7.8796 0
      vertex 8.25132 8 7.61363
    endloop
  endfacet
  facet normal 0 0 -1
    outer loop
      vertex 8.25132 8 0
      vertex 10.2421 8 0
      vertex 10.2963 7.93638 0
    endloop
  endfacet
  facet normal 0 1 0
    outer loop
      vertex 8.25132 8 0
      vertex 10.2421 8 7.61363
      vertex 10.2421 8 0
    endloop
  endfacet
  facet normal 0 0 -1
    outer loop
      vertex 8.25132 8 0
      vertex 10.2963 7.93638 0
      vertex 8.37627 7.8796 0
    endloop
  endfacet
  facet normal -0.693874 -0.720096 0
    outer loop
      vertex 8.25132 8 7.61363
      vertex 8.37627 7.8796 0
      vertex 8.37627 7.8796 7.61363
    endloop
  endfacet
  facet normal -0 0 1
    outer loop
      vertex 8.25132 8 7.61363
      vertex 8.37627 7.8796 7.61363
      vertex 10.2421 8 7.61363
    endloop
  endfacet
  facet normal -0.761115 -0.648617 0
    outer loop
      vertex 8.37627 7.8796 0
      vertex 9.10827 7.02064 0
      vertex 9.10827 7.02064 7.61363
    endloop
  endfacet
  facet normal -0.761115 -0.648617 0
    outer loop
      vertex 8.37627 7.8796 0
      vertex 9.10827 7.02064 7.61363
      vertex 8.37627 7.8796 7.61363
    endloop
  endfacet
  facet normal 0 0 -1
    outer loop
      vertex 8.37627 7.8796 0
      vertex 10.2963 7.93638 0
      vertex 11.0246 6.88895 0
    endloop
  endfacet
  facet normal 0 0 -1
    outer loop
      vertex 8.37627 7.8796 0
      vertex 11.0246 6.88895 0
      vertex 9.10827 7.02064 0
    endloop
  endfacet
  facet normal 0 0 1
    outer loop
      vertex 8.37627 7.8796 7.61363
      vertex 9.10827 7.02064 7.61363
      vertex 10.4713 6.45688 7.61363
    endloop
  endfacet
  facet normal 0 0 1
    outer loop
      vertex 8.37627 7.8796 7.61363
      vertex 10.2963 7.93638 7.61363
      vertex 10.2421 8 7.61363
    endloop
  endfacet
  facet normal 0 0 1
    outer loop
      vertex 8.37627 7.8796 7.61363
      vertex 10.4713 6.45688 7.61363
      vertex 11.0246 6.88895 7.61363
    endloop
  endfacet
  facet normal -0 0 1
    outer loop
      vertex 8.37627 7.8796 7.61363
      vertex 11.0246 6.88895 7.61363
      vertex 10.2963 7.93638 7.61363
    endloop
  endfacet
  facet normal -0.76102 -0.648729 7.10741e-05
    outer loop
      vertex 8.42535 7.82201 12
      vertex 8.56171 7.66199 11.4795
      vertex 8.76625 7.42198 10.8813
    endloop
  endfacet
  facet normal -0.761116 -0.648616 1.23495e-06
    outer loop
      vertex 8.42535 7.82201 12
      vertex 8.76625 7.42198 10.8813
      vertex 9.10827 7.02064 12
    endloop
  endfacet
  facet normal 0 0 1
    outer loop
      vertex 8.42535 7.82201 12
      vertex 9.10827 7.02064 12
      vertex 9.55946 7.6564 12
    endloop
  endfacet
  facet normal 0.139626 0.956169 -0.257381
    outer loop
      vertex 8.42535 7.82201 12
      vertex 9.55946 7.6564 12
      vertex 8.56171 7.66199 11.4795
    endloop
  endfacet
  facet normal 0.170209 0.933281 -0.316252
    outer loop
      vertex 8.56171 7.66199 11.4795
      vertex 9.55946 7.6564 12
      vertex 8.76625 7.42198 10.8813
    endloop
  endfacet
  facet normal -0.784643 0.619947 0
    outer loop
      vertex 8.66268 -7.5636 0
      vertex 8.66268 -7.5636 7.61363
      vertex 9.36233 -6.67808 0
    endloop
  endfacet
  facet normal 0 0 -1
    outer loop
      vertex 8.66268 -7.5636 0
      vertex 9.36233 -6.67808 0
      vertex 10.5835 -7.54914 0
    endloop
  endfacet
  facet normal 0 0 -1
    outer loop
      vertex 8.66268 -7.5636 0
      vertex 10.5835 -7.54914 0
      vertex 10.2273 -8 0
    endloop
  endfacet
  facet normal -0.784646 0.619944 -5.79325e-07
    outer loop
      vertex 8.66268 -7.5636 7.61363
      vertex 9.08542 -7.02855 7.61363
      vertex 9.36233 -6.67808 0
    endloop
  endfacet
  facet normal -0 0 1
    outer loop
      vertex 8.66268 -7.5636 7.61363
      vertex 9.1305 -8 7.61363
      vertex 9.08542 -7.02855 7.61363
    endloop
  endfacet
  facet normal -0.761114 -0.648618 0
    outer loop
      vertex 8.76625 7.42198 10.8813
      vertex 9.10827 7.02064 9.79684
      vertex 9.10827 7.02064 12
    endloop
  endfacet
  facet normal 0.170217 0.933278 -0.316257
    outer loop
      vertex 8.76625 7.42198 10.8813
      vertex 9.55946 7.6564 12
      vertex 10.9282 7.02767 10.8813
    endloop
  endfacet
  facet normal 0.171499 0.940308 -0.293954
    outer loop
      vertex 8.76625 7.42198 10.8813
      vertex 10.9282 7.02767 10.8813
      vertex 11.0246 6.88895 10.4938
    endloop
  endfacet
  facet normal 0.171511 0.940321 -0.293905
    outer loop
      vertex 8.76625 7.42198 10.8813
      vertex 11.0246 6.88895 10.4938
      vertex 9.10827 7.02064 9.79684
    endloop
  endfacet
  facet normal -0.511362 -0.0237297 0.859037
    outer loop
      vertex 9.08542 -7.02855 7.61363
      vertex 9.1305 -8 7.61363
      vertex 9.30442 -8 7.71716
    endloop
  endfacet
  facet normal -0.784647 0.619943 -6.72046e-07
    outer loop
      vertex 9.08542 -7.02855 7.61363
      vertex 9.24968 -6.82065 7.71716
      vertex 9.36233 -6.67808 0
    endloop
  endfacet
  facet normal -0.511385 -0.0237361 0.859024
    outer loop
      vertex 9.08542 -7.02855 7.61363
      vertex 9.30442 -8 7.71716
      vertex 9.24968 -6.82065 7.71716
    endloop
  endfacet
  facet normal -0.82102 -0.570899 0
    outer loop
      vertex 9.10827 7.02064 0
      vertex 9.32602 6.70749 7.61363
      vertex 9.10827 7.02064 7.61363
    endloop
  endfacet
  facet normal -0.821033 -0.570881 1.13207e-06
    outer loop
      vertex 9.10827 7.02064 0
      vertex 9.47655 6.491 7.71716
      vertex 9.32602 6.70749 7.61363
    endloop
  endfacet
  facet normal -0.821003 -0.570923 -3.18951e-06
    outer loop
      vertex 9.10827 7.02064 0
      vertex 9.56346 6.36602 7.89647
      vertex 9.47655 6.491 7.71716
    endloop
  endfacet
  facet normal -0.821026 -0.570891 7.65824e-07
    outer loop
      vertex 9.10827 7.02064 0
      vertex 9.75255 6.09407 0
      vertex 9.56346 6.36602 7.89647
    endloop
  endfacet
  facet normal 0 0 -1
    outer loop
      vertex 9.10827 7.02064 0
      vertex 11.0246 6.88895 0
      vertex 9.75255 6.09407 0
    endloop
  endfacet
  facet normal 0 0 1
    outer loop
      vertex 9.10827 7.02064 7.61363
      vertex 9.32602 6.70749 7.61363
      vertex 10.4713 6.45688 7.61363
    endloop
  endfacet
  facet normal -0.821023 -0.570895 0
    outer loop
      vertex 9.10827 7.02064 9.79684
      vertex 9.32777 6.70497 8.91495
      vertex 9.10827 7.02064 12
    endloop
  endfacet
  facet normal 0.171508 0.940324 -0.293898
    outer loop
      vertex 9.10827 7.02064 9.79684
      vertex 11.0246 6.88895 10.4938
      vertex 9.32777 6.70497 8.91495
    endloop
  endfacet
  facet normal -0.821028 -0.570888 -1.12895e-06
    outer loop
      vertex 9.10827 7.02064 12
      vertex 9.32777 6.70497 8.91495
      vertex 9.33652 6.69238 12
    endloop
  endfacet
  facet normal 0 0 1
    outer loop
      vertex 9.10827 7.02064 12
      vertex 9.33652 6.69238 12
      vertex 11.0246 6.88895 12
    endloop
  endfacet
  facet normal 0 0 1
    outer loop
      vertex 9.10827 7.02064 12
      vertex 10.6263 7.46183 12
      vertex 9.55946 7.6564 12
    endloop
  endfacet
  facet normal -0 0 1
    outer loop
      vertex 9.10827 7.02064 12
      vertex 11.0246 6.88895 12
      vertex 10.6263 7.46183 12
    endloop
  endfacet
  facet normal -0.87182 -0.0404659 0.488153
    outer loop
      vertex 9.24968 -6.82065 7.71716
      vertex 9.30442 -8 7.71716
      vertex 9.40482 -8 7.89647
    endloop
  endfacet
  facet normal -0.78463 0.619964 -3.35497e-08
    outer loop
      vertex 9.24968 -6.82065 7.71716
      vertex 9.34452 -6.70062 7.89647
      vertex 9.36233 -6.67808 0
    endloop
  endfacet
  facet normal -0.871799 -0.0404573 0.488191
    outer loop
      vertex 9.24968 -6.82065 7.71716
      vertex 9.40482 -8 7.89647
      vertex 9.34452 -6.70062 7.89647
    endloop
  endfacet
  facet normal 0.106886 0.488465 0.866012
    outer loop
      vertex 9.32602 6.70749 7.61363
      vertex 9.47655 6.491 7.71716
      vertex 10.4713 6.45688 7.61363
    endloop
  endfacet
  facet normal -0.821023 -0.570895 -2.83694e-06
    outer loop
      vertex 9.32777 6.70497 8.91495
      vertex 9.56346 6.36602 8.10353
      vertex 9.75255 6.09407 10.7312
    endloop
  endfacet
  facet normal -0.821026 -0.570891 -1.14652e-06
    outer loop
      vertex 9.32777 6.70497 8.91495
      vertex 9.59639 6.31865 11.1053
      vertex 9.33652 6.69238 12
    endloop
  endfacet
  facet normal -0.821025 -0.570892 -1.35661e-06
    outer loop
      vertex 9.32777 6.70497 8.91495
      vertex 9.75255 6.09407 10.7312
      vertex 9.59639 6.31865 11.1053
    endloop
  endfacet
  facet normal 0.202017 0.923193 -0.326961
    outer loop
      vertex 9.32777 6.70497 8.91495
      vertex 10.4077 6.18128 8.10353
      vertex 9.56346 6.36602 8.10353
    endloop
  endfacet
  facet normal 0.171361 0.940398 -0.293748
    outer loop
      vertex 9.32777 6.70497 8.91495
      vertex 11.0246 6.88895 10.4938
      vertex 11.0401 6.86123 10.4141
    endloop
  endfacet
  facet normal 0.202014 0.923191 -0.326967
    outer loop
      vertex 9.32777 6.70497 8.91495
      vertex 11.0401 6.86123 10.4141
      vertex 11.158 6.65015 9.89096
    endloop
  endfacet
  facet normal 0.202013 0.923192 -0.326965
    outer loop
      vertex 9.32777 6.70497 8.91495
      vertex 11.158 6.65015 9.89096
      vertex 10.4077 6.18128 8.10353
    endloop
  endfacet
  facet normal -0.202001 -0.923197 0.326961
    outer loop
      vertex 9.33652 6.69238 12
      vertex 9.59639 6.31865 11.1053
      vertex 9.97197 6.55334 12
    endloop
  endfacet
  facet normal -0 0 1
    outer loop
      vertex 9.33652 6.69238 12
      vertex 9.97197 6.55334 12
      vertex 11.0246 6.88895 12
    endloop
  endfacet
  facet normal -0.784624 0.619972 0
    outer loop
      vertex 9.34452 -6.70062 7.89647
      vertex 9.36233 -6.67808 7.96081
      vertex 9.36233 -6.67808 0
    endloop
  endfacet
  facet normal -0.958687 -0.0444896 0.280961
    outer loop
      vertex 9.34452 -6.70062 7.89647
      vertex 9.40482 -8 7.89647
      vertex 9.36233 -6.67808 7.96081
    endloop
  endfacet
  facet normal -0.841629 0.540056 0
    outer loop
      vertex 9.36233 -6.67808 0
      vertex 9.36233 -6.67808 7.96081
      vertex 9.97181 -5.72826 0
    endloop
  endfacet
  facet normal 0 0 -1
    outer loop
      vertex 9.36233 -6.67808 0
      vertex 9.97181 -5.72826 0
      vertex 11.2725 -6.47542 0
    endloop
  endfacet
  facet normal 0 0 -1
    outer loop
      vertex 9.36233 -6.67808 0
      vertex 11.2725 -6.47542 0
      vertex 10.5835 -7.54914 0
    endloop
  endfacet
  facet normal -0.958699 -0.0444881 0.280922
    outer loop
      vertex 9.36233 -6.67808 7.96081
      vertex 9.40482 -8 7.89647
      vertex 9.48602 -8 8.17358
    endloop
  endfacet
  facet normal -0.958703 -0.0444908 0.280907
    outer loop
      vertex 9.36233 -6.67808 7.96081
      vertex 9.48602 -8 8.17358
      vertex 9.93281 -5.78903 10.0486
    endloop
  endfacet
  facet normal -0.841631 0.540053 -4.53337e-07
    outer loop
      vertex 9.36233 -6.67808 7.96081
      vertex 9.93281 -5.78903 10.0486
      vertex 9.97181 -5.72826 0
    endloop
  endfacet
  facet normal 0.185117 0.846031 0.499963
    outer loop
      vertex 9.47655 6.491 7.71716
      vertex 9.56346 6.36602 7.89647
      vertex 10.431 6.28216 7.71716
    endloop
  endfacet
  facet normal 0.106885 0.488492 0.865997
    outer loop
      vertex 9.47655 6.491 7.71716
      vertex 10.431 6.28216 7.71716
      vertex 10.4713 6.45688 7.61363
    endloop
  endfacet
  facet normal -0.91928 -0.129462 0.371704
    outer loop
      vertex 9.48602 -8 8.17358
      vertex 9.65307 -8 8.58672
      vertex 10.2673 -5.14982 11.0985
    endloop
  endfacet
  facet normal -0.919236 -0.129537 0.371787
    outer loop
      vertex 9.48602 -8 8.17358
      vertex 9.97181 -5.72826 10.1662
      vertex 9.93281 -5.78903 10.0486
    endloop
  endfacet
  facet normal -0.919302 -0.129417 0.371666
    outer loop
      vertex 9.48602 -8 8.17358
      vertex 10.2673 -5.14982 11.0985
      vertex 9.97181 -5.72826 10.1662
    endloop
  endfacet
  facet normal 0.170211 0.933277 -0.316264
    outer loop
      vertex 9.55946 7.6564 12
      vertex 10.6263 7.46183 12
      vertex 10.9282 7.02767 10.8813
    endloop
  endfacet
  facet normal 0.213766 0.976885 -0
    outer loop
      vertex 9.56346 6.36602 7.89647
      vertex 9.56346 6.36602 8.10353
      vertex 10.4077 6.18128 7.89647
    endloop
  endfacet
  facet normal -0.821036 -0.570876 0
    outer loop
      vertex 9.56346 6.36602 7.89647
      vertex 9.75255 6.09407 0
      vertex 9.75255 6.09407 10.7312
    endloop
  endfacet
  facet normal -0.821036 -0.570876 0
    outer loop
      vertex 9.56346 6.36602 7.89647
      vertex 9.75255 6.09407 10.7312
      vertex 9.56346 6.36602 8.10353
    endloop
  endfacet
  facet normal 0.185125 0.845999 0.500015
    outer loop
      vertex 9.56346 6.36602 7.89647
      vertex 10.4077 6.18128 7.89647
      vertex 10.431 6.28216 7.71716
    endloop
  endfacet
  facet normal 0.213766 0.976885 0
    outer loop
      vertex 9.56346 6.36602 8.10353
      vertex 10.4077 6.18128 8.10353
      vertex 10.4077 6.18128 7.89647
    endloop
  endfacet
  facet normal -0.347549 -0.86084 0.371703
    outer loop
      vertex 9.59639 6.31865 11.1053
      vertex 9.75255 6.09407 10.7312
      vertex 9.97197 6.55334 12
    endloop
  endfacet
  facet normal -0.942107 -0.0329018 0.333694
    outer loop
      vertex 9.65307 -8 8.58672
      vertex 9.80262 -8 9.00894
      vertex 10.8126 -6.58402 12
    endloop
  endfacet
  facet normal -0.919289 -0.129445 0.371688
    outer loop
      vertex 9.65307 -8 8.58672
      vertex 10.8056 -6.38414 12
      vertex 10.2673 -5.14982 11.0985
    endloop
  endfacet
  facet normal -0.942092 -0.032993 0.333726
    outer loop
      vertex 9.65307 -8 8.58672
      vertex 10.8126 -6.58402 12
      vertex 10.8056 -6.38414 12
    endloop
  endfacet
  facet normal -0.87303 -0.487667 0
    outer loop
      vertex 9.75255 6.09407 0
      vertex 9.95738 5.72738 10.0735
      vertex 9.75255 6.09407 10.7312
    endloop
  endfacet
  facet normal -0.873033 -0.487662 2.60748e-07
    outer loop
      vertex 9.75255 6.09407 0
      vertex 10.3029 5.10881 0
      vertex 9.95738 5.72738 10.0735
    endloop
  endfacet
  facet normal 0 0 -1
    outer loop
      vertex 9.75255 6.09407 0
      vertex 11.0246 6.88895 0
      vertex 11.6468 5.77518 0
    endloop
  endfacet
  facet normal 0 0 -1
    outer loop
      vertex 9.75255 6.09407 0
      vertex 11.6468 5.77518 0
      vertex 10.3029 5.10881 0
    endloop
  endfacet
  facet normal -0.347559 -0.860836 0.371704
    outer loop
      vertex 9.75255 6.09407 10.7312
      vertex 9.95738 5.72738 10.0735
      vertex 9.97197 6.55334 12
    endloop
  endfacet
  facet normal 0 -1 0
    outer loop
      vertex 9.80262 -8 9.00894
      vertex 10.2273 -8 0
      vertex 10.2273 -8 10.3868
    endloop
  endfacet
  facet normal -0.953958 0.0592663 0.294026
    outer loop
      vertex 9.80262 -8 9.00894
      vertex 10.2273 -8 10.3868
      vertex 10.5835 -7.54914 11.4516
    endloop
  endfacet
  facet normal -0.953958 0.0593921 0.294003
    outer loop
      vertex 9.80262 -8 9.00894
      vertex 10.5835 -7.54914 11.4516
      vertex 10.8126 -6.58402 12
    endloop
  endfacet
  facet normal -0.841597 0.540106 0
    outer loop
      vertex 9.93281 -5.78903 10.0486
      vertex 9.97181 -5.72826 10.1662
      vertex 9.97181 -5.72826 0
    endloop
  endfacet
  facet normal -0.873035 -0.487658 0
    outer loop
      vertex 9.95738 5.72738 10.0735
      vertex 10.3029 5.10881 0
      vertex 10.3029 5.10881 8.73848
    endloop
  endfacet
  facet normal -0.440812 -0.852509 0.280915
    outer loop
      vertex 9.95738 5.72738 10.0735
      vertex 10.3029 5.10881 8.73848
      vertex 11.9212 3.99457 7.89647
    endloop
  endfacet
  facet normal -0.347522 -0.860849 0.371709
    outer loop
      vertex 9.95738 5.72738 10.0735
      vertex 10.9317 6.1659 12
      vertex 9.97197 6.55334 12
    endloop
  endfacet
  facet normal -0.347521 -0.86085 0.371708
    outer loop
      vertex 9.95738 5.72738 10.0735
      vertex 11.9212 3.99457 7.89647
      vertex 10.9317 6.1659 12
    endloop
  endfacet
  facet normal -0.890496 0.454991 0
    outer loop
      vertex 9.97181 -5.72826 0
      vertex 9.97181 -5.72826 10.1662
      vertex 10.4853 -4.72327 0
    endloop
  endfacet
  facet normal 0 0 -1
    outer loop
      vertex 9.97181 -5.72826 0
      vertex 10.4853 -4.72327 0
      vertex 11.8529 -5.33934 0
    endloop
  endfacet
  facet normal 0 0 -1
    outer loop
      vertex 9.97181 -5.72826 0
      vertex 11.8529 -5.33934 0
      vertex 11.2725 -6.47542 0
    endloop
  endfacet
  facet normal -0.890512 0.45496 -3.1985e-05
    outer loop
      vertex 9.97181 -5.72826 10.1662
      vertex 10.2673 -5.14982 11.0985
      vertex 10.4853 -4.72327 8.96254
    endloop
  endfacet
  facet normal -0.89054 0.454905 -1.06421e-05
    outer loop
      vertex 9.97181 -5.72826 10.1662
      vertex 10.2942 -5.09719 7.89647
      vertex 10.4853 -4.72327 0
    endloop
  endfacet
  facet normal -0.890524 0.454936 0
    outer loop
      vertex 9.97181 -5.72826 10.1662
      vertex 10.2942 -5.09719 8.10353
      vertex 10.2942 -5.09719 7.89647
    endloop
  endfacet
  facet normal -0.89048 0.455022 3.34994e-05
    outer loop
      vertex 9.97181 -5.72826 10.1662
      vertex 10.4853 -4.72327 8.96254
      vertex 10.2942 -5.09719 8.10353
    endloop
  endfacet
  facet normal -0 0 1
    outer loop
      vertex 9.97197 6.55334 12
      vertex 10.9317 6.1659 12
      vertex 11.0246 6.88895 12
    endloop
  endfacet
  facet normal 0.784664 -0.619921 0
    outer loop
      vertex 10.2273 -8 0
      vertex 10.5835 -7.54914 0
      vertex 10.2273 -8 10.3868
    endloop
  endfacet
  facet normal 0.784664 -0.619921 0
    outer loop
      vertex 10.2273 -8 10.3868
      vertex 10.5835 -7.54914 0
      vertex 10.5835 -7.54914 11.4516
    endloop
  endfacet
  facet normal 0.761213 0.648502 -0
    outer loop
      vertex 10.2421 8 0
      vertex 10.2421 8 7.61363
      vertex 10.2963 7.93638 7.61363
    endloop
  endfacet
  facet normal 0.761213 0.648502 0
    outer loop
      vertex 10.2421 8 0
      vertex 10.2963 7.93638 7.61363
      vertex 10.2963 7.93638 0
    endloop
  endfacet
  facet normal -0.889963 0.456033 -0.000564359
    outer loop
      vertex 10.2673 -5.14982 11.0985
      vertex 10.469 -4.75508 12
      vertex 10.4853 -4.72327 12
    endloop
  endfacet
  facet normal -0.890447 0.455087 0
    outer loop
      vertex 10.2673 -5.14982 11.0985
      vertex 10.4853 -4.72327 12
      vertex 10.4853 -4.72327 8.96254
    endloop
  endfacet
  facet normal -0.900527 -0.286598 0.326975
    outer loop
      vertex 10.2673 -5.14982 11.0985
      vertex 10.6613 -5.35931 12
      vertex 10.469 -4.75508 12
    endloop
  endfacet
  facet normal -0.919287 -0.129439 0.371695
    outer loop
      vertex 10.2673 -5.14982 11.0985
      vertex 10.8056 -6.38414 12
      vertex 10.6613 -5.35931 12
    endloop
  endfacet
  facet normal 0.952877 0.303358 -0
    outer loop
      vertex 10.2942 -5.09719 7.89647
      vertex 10.2942 -5.09719 8.10353
      vertex 10.557 -5.92267 7.89647
    endloop
  endfacet
  facet normal -0.890318 0.45534 1.53029e-05
    outer loop
      vertex 10.2942 -5.09719 7.89647
      vertex 10.3612 -4.96618 7.71716
      vertex 10.4853 -4.72327 0
    endloop
  endfacet
  facet normal 0.825236 0.262722 0.499963
    outer loop
      vertex 10.2942 -5.09719 7.89647
      vertex 10.557 -5.92267 7.89647
      vertex 10.656 -5.89241 7.71716
    endloop
  endfacet
  facet normal 0.825128 0.262621 0.500193
    outer loop
      vertex 10.2942 -5.09719 7.89647
      vertex 10.656 -5.89241 7.71716
      vertex 10.3612 -4.96618 7.71716
    endloop
  endfacet
  facet normal 0.90049 0.28668 -0.327004
    outer loop
      vertex 10.2942 -5.09719 8.10353
      vertex 10.4784 -4.73671 8.9268
      vertex 10.557 -5.92267 8.10353
    endloop
  endfacet
  facet normal -0.89572 0.444581 0.00574425
    outer loop
      vertex 10.2942 -5.09719 8.10353
      vertex 10.4853 -4.72327 8.96254
      vertex 10.4784 -4.73671 8.9268
    endloop
  endfacet
  facet normal 0.952877 0.303358 0
    outer loop
      vertex 10.2942 -5.09719 8.10353
      vertex 10.557 -5.92267 8.10353
      vertex 10.557 -5.92267 7.89647
    endloop
  endfacet
  facet normal 0.821033 0.570881 -0
    outer loop
      vertex 10.2963 7.93638 0
      vertex 10.2963 7.93638 7.61363
      vertex 11.0246 6.88895 7.61363
    endloop
  endfacet
  facet normal 0.821033 0.570881 0
    outer loop
      vertex 10.2963 7.93638 0
      vertex 11.0246 6.88895 7.61363
      vertex 11.0246 6.88895 0
    endloop
  endfacet
  facet normal -0.916655 -0.39968 0
    outer loop
      vertex 10.3029 5.10881 0
      vertex 10.4591 4.75057 7.89647
      vertex 10.3029 5.10881 8.73848
    endloop
  endfacet
  facet normal -0.916605 -0.399795 -6.19809e-06
    outer loop
      vertex 10.3029 5.10881 0
      vertex 10.7541 4.07435 0
      vertex 10.4591 4.75057 7.89647
    endloop
  endfacet
  facet normal 0 0 -1
    outer loop
      vertex 10.3029 5.10881 0
      vertex 11.6468 5.77518 0
      vertex 12.1568 4.60578 0
    endloop
  endfacet
  facet normal 0 0 -1
    outer loop
      vertex 10.3029 5.10881 0
      vertex 12.1568 4.60578 0
      vertex 10.7541 4.07435 0
    endloop
  endfacet
  facet normal -0.440802 -0.852508 0.280934
    outer loop
      vertex 10.3029 5.10881 8.73848
      vertex 10.4591 4.75057 7.89647
      vertex 11.9212 3.99457 7.89647
    endloop
  endfacet
  facet normal -0.890573 0.45484 -4.51141e-06
    outer loop
      vertex 10.3612 -4.96618 7.71716
      vertex 10.4771 -4.73925 7.61363
      vertex 10.4853 -4.72327 0
    endloop
  endfacet
  facet normal 0.476441 0.151641 0.866031
    outer loop
      vertex 10.3612 -4.96618 7.71716
      vertex 10.656 -5.89241 7.71716
      vertex 10.8275 -5.83998 7.61363
    endloop
  endfacet
  facet normal 0.47653 0.151696 0.865972
    outer loop
      vertex 10.3612 -4.96618 7.71716
      vertex 10.8275 -5.83998 7.61363
      vertex 10.4771 -4.73925 7.61363
    endloop
  endfacet
  facet normal 0.390503 0.920602 -0
    outer loop
      vertex 10.4077 6.18128 7.89647
      vertex 10.4077 6.18128 8.10353
      vertex 11.7107 5.62857 8.10353
    endloop
  endfacet
  facet normal 0.339469 0.800248 0.494332
    outer loop
      vertex 10.4077 6.18128 7.89647
      vertex 11.6514 5.76446 7.71716
      vertex 10.431 6.28216 7.71716
    endloop
  endfacet
  facet normal 0.339474 0.800302 0.49424
    outer loop
      vertex 10.4077 6.18128 7.89647
      vertex 11.7107 5.62857 7.89647
      vertex 11.6514 5.76446 7.71716
    endloop
  endfacet
  facet normal 0.390503 0.920602 0
    outer loop
      vertex 10.4077 6.18128 7.89647
      vertex 11.7107 5.62857 8.10353
      vertex 11.7107 5.62857 7.89647
    endloop
  endfacet
  facet normal 0.36188 0.853165 -0.375703
    outer loop
      vertex 10.4077 6.18128 8.10353
      vertex 11.158 6.65015 9.89096
      vertex 11.6468 5.77518 8.37485
    endloop
  endfacet
  facet normal 0.361885 0.853134 -0.375769
    outer loop
      vertex 10.4077 6.18128 8.10353
      vertex 11.6468 5.77518 8.37485
      vertex 11.7107 5.62857 8.10353
    endloop
  endfacet
  facet normal 0.197509 0.465615 0.862666
    outer loop
      vertex 10.431 6.28216 7.71716
      vertex 11.5127 6.01513 7.61363
      vertex 10.4713 6.45688 7.61363
    endloop
  endfacet
  facet normal 0.197516 0.465653 0.862644
    outer loop
      vertex 10.431 6.28216 7.71716
      vertex 11.6468 5.77518 7.71245
      vertex 11.5127 6.01513 7.61363
    endloop
  endfacet
  facet normal 0.196807 0.463943 0.863727
    outer loop
      vertex 10.431 6.28216 7.71716
      vertex 11.6514 5.76446 7.71716
      vertex 11.6468 5.77518 7.71245
    endloop
  endfacet
  facet normal -0.400849 -0.77524 0.488183
    outer loop
      vertex 10.4591 4.75057 7.89647
      vertex 10.5227 4.60477 7.71716
      vertex 11.9212 3.99457 7.89647
    endloop
  endfacet
  facet normal -0.916591 -0.399826 -3.03261e-06
    outer loop
      vertex 10.4591 4.75057 7.89647
      vertex 10.7541 4.07435 0
      vertex 10.5227 4.60477 7.71716
    endloop
  endfacet
  facet normal 0 0 1
    outer loop
      vertex 10.469 -4.75508 12
      vertex 10.6613 -5.35931 12
      vertex 11.7794 -5.48324 12
    endloop
  endfacet
  facet normal -0 0 1
    outer loop
      vertex 10.469 -4.75508 12
      vertex 11.7794 -5.48324 12
      vertex 10.4853 -4.72327 12
    endloop
  endfacet
  facet normal -0 0 1
    outer loop
      vertex 10.4713 6.45688 7.61363
      vertex 11.5127 6.01513 7.61363
      vertex 11.0246 6.88895 7.61363
    endloop
  endfacet
  facet normal -0.889702 0.456543 0
    outer loop
      vertex 10.4771 -4.73925 7.61363
      vertex 10.4853 -4.72327 7.61363
      vertex 10.4853 -4.72327 0
    endloop
  endfacet
  facet normal -0 0 1
    outer loop
      vertex 10.4771 -4.73925 7.61363
      vertex 10.8275 -5.83998 7.61363
      vertex 10.4853 -4.72327 7.61363
    endloop
  endfacet
  facet normal 0.900126 0.321008 -0.294494
    outer loop
      vertex 10.4784 -4.73671 8.9268
      vertex 10.4853 -4.72327 8.96254
      vertex 11.4543 -6.11947 10.4024
    endloop
  endfacet
  facet normal 0.900519 0.286647 -0.326954
    outer loop
      vertex 10.4784 -4.73671 8.9268
      vertex 11.4543 -6.11947 10.4024
      vertex 10.557 -5.92267 8.10353
    endloop
  endfacet
  facet normal -0.930838 0.365431 0
    outer loop
      vertex 10.4853 -4.72327 0
      vertex 10.4853 -4.72327 7.61363
      vertex 10.8977 -3.67279 7.61363
    endloop
  endfacet
  facet normal 0 0 -1
    outer loop
      vertex 10.4853 -4.72327 0
      vertex 10.8977 -3.67279 0
      vertex 12.3192 -4.15185 0
    endloop
  endfacet
  facet normal -0.930838 0.365431 0
    outer loop
      vertex 10.4853 -4.72327 0
      vertex 10.8977 -3.67279 7.61363
      vertex 10.8977 -3.67279 0
    endloop
  endfacet
  facet normal 0 0 -1
    outer loop
      vertex 10.4853 -4.72327 0
      vertex 12.3192 -4.15185 0
      vertex 11.8529 -5.33934 0
    endloop
  endfacet
  facet normal 0 0 1
    outer loop
      vertex 10.4853 -4.72327 7.61363
      vertex 10.8275 -5.83998 7.61363
      vertex 11.8529 -5.33934 7.61363
    endloop
  endfacet
  facet normal -0 0 1
    outer loop
      vertex 10.4853 -4.72327 7.61363
      vertex 11.8529 -5.33934 7.61363
      vertex 12.3192 -4.15185 7.61363
    endloop
  endfacet
  facet normal 0 0 1
    outer loop
      vertex 10.4853 -4.72327 7.61363
      vertex 12.3192 -4.15185 7.61363
      vertex 10.8977 -3.67279 7.61363
    endloop
  endfacet
  facet normal -0.930823 0.36547 0
    outer loop
      vertex 10.4853 -4.72327 8.96254
      vertex 10.4853 -4.72327 12
      vertex 10.8133 -3.88788 10.8813
    endloop
  endfacet
  facet normal 0.900109 0.321609 -0.29389
    outer loop
      vertex 10.4853 -4.72327 8.96254
      vertex 10.8133 -3.88788 10.8813
      vertex 11.5463 -5.93938 10.8813
    endloop
  endfacet
  facet normal 0.900105 0.321639 -0.293869
    outer loop
      vertex 10.4853 -4.72327 8.96254
      vertex 11.5463 -5.93938 10.8813
      vertex 11.4543 -6.11947 10.4024
    endloop
  endfacet
  facet normal -0.930852 0.365396 -6.38299e-05
    outer loop
      vertex 10.4853 -4.72327 12
      vertex 10.8977 -3.67279 11.337
      vertex 10.8133 -3.88788 10.8813
    endloop
  endfacet
  facet normal -0.930838 0.365431 0
    outer loop
      vertex 10.4853 -4.72327 12
      vertex 10.8977 -3.67279 12
      vertex 10.8977 -3.67279 11.337
    endloop
  endfacet
  facet normal 0 0 1
    outer loop
      vertex 10.4853 -4.72327 12
      vertex 11.4104 -4.45057 12
      vertex 10.8977 -3.67279 12
    endloop
  endfacet
  facet normal -0 0 1
    outer loop
      vertex 10.4853 -4.72327 12
      vertex 11.7794 -5.48324 12
      vertex 11.4104 -4.45057 12
    endloop
  endfacet
  facet normal -0.235165 -0.454799 0.858985
    outer loop
      vertex 10.5227 4.60477 7.71716
      vertex 10.6329 4.35225 7.61363
      vertex 11.8979 3.89369 7.71716
    endloop
  endfacet
  facet normal -0.916525 -0.399976 9.27065e-06
    outer loop
      vertex 10.5227 4.60477 7.71716
      vertex 10.7541 4.07435 0
      vertex 10.6329 4.35225 7.61363
    endloop
  endfacet
  facet normal -0.400844 -0.775217 0.488224
    outer loop
      vertex 10.5227 4.60477 7.71716
      vertex 11.8979 3.89369 7.71716
      vertex 11.9212 3.99457 7.89647
    endloop
  endfacet
  facet normal 0.992514 0.122128 -0
    outer loop
      vertex 10.557 -5.92267 7.89647
      vertex 10.557 -5.92267 8.10353
      vertex 10.7292 -7.32211 8.10353
    endloop
  endfacet
  facet normal 0.862784 0.106165 0.494301
    outer loop
      vertex 10.557 -5.92267 7.89647
      vertex 10.7292 -7.32211 7.89647
      vertex 10.8154 -7.18778 7.71716
    endloop
  endfacet
  facet normal 0.992514 0.122128 0
    outer loop
      vertex 10.557 -5.92267 7.89647
      vertex 10.7292 -7.32211 8.10353
      vertex 10.7292 -7.32211 7.89647
    endloop
  endfacet
  facet normal 0.862795 0.10617 0.49428
    outer loop
      vertex 10.557 -5.92267 7.89647
      vertex 10.8154 -7.18778 7.71716
      vertex 10.656 -5.89241 7.71716
    endloop
  endfacet
  facet normal 0.919801 0.113181 -0.375708
    outer loop
      vertex 10.557 -5.92267 8.10353
      vertex 11.2725 -6.47542 9.68869
      vertex 10.7292 -7.32211 8.10353
    endloop
  endfacet
  facet normal 0.919803 0.113301 -0.375667
    outer loop
      vertex 10.557 -5.92267 8.10353
      vertex 11.3417 -6.33992 9.89899
      vertex 11.2725 -6.47542 9.68869
    endloop
  endfacet
  facet normal 0.900518 0.286654 -0.326952
    outer loop
      vertex 10.557 -5.92267 8.10353
      vertex 11.4543 -6.11947 10.4024
      vertex 11.3417 -6.33992 9.89899
    endloop
  endfacet
  facet normal 0.841596 -0.540107 0
    outer loop
      vertex 10.5835 -7.54914 0
      vertex 10.7292 -7.32211 7.89647
      vertex 10.7292 -7.32211 8.10353
    endloop
  endfacet
  facet normal 0.841596 -0.540107 0
    outer loop
      vertex 10.5835 -7.54914 0
      vertex 10.7292 -7.32211 8.10353
      vertex 10.5835 -7.54914 11.4516
    endloop
  endfacet
  facet normal 0.841619 -0.540072 -1.44798e-06
    outer loop
      vertex 10.5835 -7.54914 0
      vertex 10.8154 -7.18778 7.71716
      vertex 10.7292 -7.32211 7.89647
    endloop
  endfacet
  facet normal 0.841638 -0.540042 -3.4179e-06
    outer loop
      vertex 10.5835 -7.54914 0
      vertex 10.9647 -6.9551 7.61363
      vertex 10.8154 -7.18778 7.71716
    endloop
  endfacet
  facet normal 0.841623 -0.540065 0
    outer loop
      vertex 10.5835 -7.54914 0
      vertex 11.2725 -6.47542 0
      vertex 11.2725 -6.47542 7.61363
    endloop
  endfacet
  facet normal 0.84163 -0.540055 -1.95975e-06
    outer loop
      vertex 10.5835 -7.54914 0
      vertex 11.2725 -6.47542 7.61363
      vertex 10.9647 -6.9551 7.61363
    endloop
  endfacet
  facet normal 0.841627 -0.54006 4.56661e-06
    outer loop
      vertex 10.5835 -7.54914 11.4516
      vertex 10.7292 -7.32211 8.10353
      vertex 11.2725 -6.47542 9.68869
    endloop
  endfacet
  facet normal -0.953941 0.059354 0.294063
    outer loop
      vertex 10.5835 -7.54914 11.4516
      vertex 10.7707 -7.25744 12
      vertex 10.8126 -6.58402 12
    endloop
  endfacet
  facet normal 0.841623 -0.540065 0
    outer loop
      vertex 10.5835 -7.54914 11.4516
      vertex 11.2725 -6.47542 9.68869
      vertex 11.2725 -6.47542 12
    endloop
  endfacet
  facet normal 0.841632 -0.540051 -3.74521e-05
    outer loop
      vertex 10.5835 -7.54914 11.4516
      vertex 11.2725 -6.47542 12
      vertex 10.7707 -7.25744 12
    endloop
  endfacet
  facet normal 0.821056 0.570847 3.40065e-05
    outer loop
      vertex 10.6263 7.46183 12
      vertex 11.0246 6.88895 12
      vertex 10.9282 7.02767 10.8813
    endloop
  endfacet
  facet normal -0.916618 -0.399763 0
    outer loop
      vertex 10.6329 4.35225 7.61363
      vertex 10.7541 4.07435 0
      vertex 10.7541 4.07435 7.61363
    endloop
  endfacet
  facet normal 0 0 1
    outer loop
      vertex 10.6329 4.35225 7.61363
      vertex 10.7541 4.07435 7.61363
      vertex 11.8576 3.71897 7.61363
    endloop
  endfacet
  facet normal -0.235154 -0.454764 0.859007
    outer loop
      vertex 10.6329 4.35225 7.61363
      vertex 11.8576 3.71897 7.61363
      vertex 11.8979 3.89369 7.71716
    endloop
  endfacet
  facet normal 0.501955 0.0617673 0.862686
    outer loop
      vertex 10.656 -5.89241 7.71716
      vertex 10.8154 -7.18778 7.71716
      vertex 10.9647 -6.9551 7.61363
    endloop
  endfacet
  facet normal 0.501916 0.0617537 0.862709
    outer loop
      vertex 10.656 -5.89241 7.71716
      vertex 10.9647 -6.9551 7.61363
      vertex 10.8275 -5.83998 7.61363
    endloop
  endfacet
  facet normal 0 0 1
    outer loop
      vertex 10.6613 -5.35931 12
      vertex 10.8056 -6.38414 12
      vertex 11.7794 -5.48324 12
    endloop
  endfacet
  facet normal -0.951412 -0.307922 0
    outer loop
      vertex 10.7541 4.07435 0
      vertex 11.1016 3.00065 0
      vertex 10.7541 4.07435 7.61363
    endloop
  endfacet
  facet normal 0 0 -1
    outer loop
      vertex 10.7541 4.07435 0
      vertex 12.1568 4.60578 0
      vertex 12.5497 3.39203 0
    endloop
  endfacet
  facet normal 0 0 -1
    outer loop
      vertex 10.7541 4.07435 0
      vertex 12.5497 3.39203 0
      vertex 11.1016 3.00065 0
    endloop
  endfacet
  facet normal -0.951412 -0.307922 0
    outer loop
      vertex 10.7541 4.07435 7.61363
      vertex 11.1016 3.00065 0
      vertex 11.1016 3.00065 7.61363
    endloop
  endfacet
  facet normal 0 0 1
    outer loop
      vertex 10.7541 4.07435 7.61363
      vertex 11.1016 3.00065 7.61363
      vertex 11.8576 3.71897 7.61363
    endloop
  endfacet
  facet normal 0 0 1
    outer loop
      vertex 10.7707 -7.25744 12
      vertex 11.2725 -6.47542 12
      vertex 10.8126 -6.58402 12
    endloop
  endfacet
  facet normal 0 0 1
    outer loop
      vertex 10.8056 -6.38414 12
      vertex 10.8126 -6.58402 12
      vertex 11.2725 -6.47542 12
    endloop
  endfacet
  facet normal -0 0 1
    outer loop
      vertex 10.8056 -6.38414 12
      vertex 11.2725 -6.47542 12
      vertex 11.7794 -5.48324 12
    endloop
  endfacet
  facet normal 0.893361 0.319291 -0.316164
    outer loop
      vertex 10.8133 -3.88788 10.8813
      vertex 10.8977 -3.67279 11.337
      vertex 11.7794 -5.48324 12
    endloop
  endfacet
  facet normal 0.89335 0.319194 -0.316293
    outer loop
      vertex 10.8133 -3.88788 10.8813
      vertex 11.7794 -5.48324 12
      vertex 11.5463 -5.93938 10.8813
    endloop
  endfacet
  facet normal 0 0 1
    outer loop
      vertex 10.8275 -5.83998 7.61363
      vertex 10.9647 -6.9551 7.61363
      vertex 11.2725 -6.47542 7.61363
    endloop
  endfacet
  facet normal -0 0 1
    outer loop
      vertex 10.8275 -5.83998 7.61363
      vertex 11.2725 -6.47542 7.61363
      vertex 11.8529 -5.33934 7.61363
    endloop
  endfacet
  facet normal -0.96214 0.272555 0
    outer loop
      vertex 10.8977 -3.67279 0
      vertex 10.8977 -3.67279 7.61363
      vertex 11.2053 -2.58694 7.61363
    endloop
  endfacet
  facet normal 0 0 -1
    outer loop
      vertex 10.8977 -3.67279 0
      vertex 11.2053 -2.58694 0
      vertex 12.6668 -2.92436 0
    endloop
  endfacet
  facet normal -0.96214 0.272555 0
    outer loop
      vertex 10.8977 -3.67279 0
      vertex 11.2053 -2.58694 7.61363
      vertex 11.2053 -2.58694 0
    endloop
  endfacet
  facet normal 0 0 -1
    outer loop
      vertex 10.8977 -3.67279 0
      vertex 12.6668 -2.92436 0
      vertex 12.3192 -4.15185 0
    endloop
  endfacet
  facet normal 0 0 1
    outer loop
      vertex 10.8977 -3.67279 7.61363
      vertex 12.1568 -2.7535 7.61363
      vertex 11.2053 -2.58694 7.61363
    endloop
  endfacet
  facet normal -0 0 1
    outer loop
      vertex 10.8977 -3.67279 7.61363
      vertex 12.3192 -4.15185 7.61363
      vertex 12.4852 -3.56564 7.61363
    endloop
  endfacet
  facet normal 0 0 1
    outer loop
      vertex 10.8977 -3.67279 7.61363
      vertex 12.4852 -3.56564 7.61363
      vertex 12.1568 -2.7535 7.61363
    endloop
  endfacet
  facet normal -0.96196 0.27319 0
    outer loop
      vertex 10.8977 -3.67279 11.337
      vertex 10.8977 -3.67279 12
      vertex 10.9208 -3.59145 11.4842
    endloop
  endfacet
  facet normal 0.893292 0.319124 -0.316526
    outer loop
      vertex 10.8977 -3.67279 11.337
      vertex 10.9208 -3.59145 11.4842
      vertex 11.7794 -5.48324 12
    endloop
  endfacet
  facet normal -0.962098 0.272703 -8.30731e-05
    outer loop
      vertex 10.8977 -3.67279 12
      vertex 10.9823 -3.37432 12
      vertex 10.9208 -3.59145 11.4842
    endloop
  endfacet
  facet normal -0 0 1
    outer loop
      vertex 10.8977 -3.67279 12
      vertex 11.4104 -4.45057 12
      vertex 10.9823 -3.37432 12
    endloop
  endfacet
  facet normal 0.89788 0.35715 -0.257401
    outer loop
      vertex 10.9208 -3.59145 11.4842
      vertex 10.9823 -3.37432 12
      vertex 11.4104 -4.45057 12
    endloop
  endfacet
  facet normal 0.893346 0.319216 -0.316281
    outer loop
      vertex 10.9208 -3.59145 11.4842
      vertex 11.4104 -4.45057 12
      vertex 11.7794 -5.48324 12
    endloop
  endfacet
  facet normal 0.821185 0.570662 0
    outer loop
      vertex 10.9282 7.02767 10.8813
      vertex 11.0246 6.88895 12
      vertex 11.0246 6.88895 10.4938
    endloop
  endfacet
  facet normal -0 0 1
    outer loop
      vertex 10.9317 6.1659 12
      vertex 11.1082 6.072 12
      vertex 11.0246 6.88895 12
    endloop
  endfacet
  facet normal -0.442772 -0.83226 0.333612
    outer loop
      vertex 10.9317 6.1659 12
      vertex 11.9212 3.99457 7.89647
      vertex 11.1082 6.072 12
    endloop
  endfacet
  facet normal 0.873033 0.487661 -0
    outer loop
      vertex 11.0246 6.88895 0
      vertex 11.0246 6.88895 7.61363
      vertex 11.5127 6.01513 7.61363
    endloop
  endfacet
  facet normal 0.873011 0.487701 6.1428e-06
    outer loop
      vertex 11.0246 6.88895 0
      vertex 11.5127 6.01513 7.61363
      vertex 11.6468 5.77518 0
    endloop
  endfacet
  facet normal 0.873011 0.487701 -0
    outer loop
      vertex 11.0246 6.88895 10.4938
      vertex 11.0246 6.88895 12
      vertex 11.6468 5.77518 12
    endloop
  endfacet
  facet normal 0.87445 0.485114 0.00133787
    outer loop
      vertex 11.0246 6.88895 10.4938
      vertex 11.158 6.65015 9.89096
      vertex 11.0401 6.86123 10.4141
    endloop
  endfacet
  facet normal 0.873013 0.487697 -3.76094e-06
    outer loop
      vertex 11.0246 6.88895 10.4938
      vertex 11.6468 5.77518 12
      vertex 11.158 6.65015 9.89096
    endloop
  endfacet
  facet normal 0 0 1
    outer loop
      vertex 11.0246 6.88895 12
      vertex 11.1082 6.072 12
      vertex 11.6468 5.77518 12
    endloop
  endfacet
  facet normal -0.976991 -0.213279 0
    outer loop
      vertex 11.1016 3.00065 0
      vertex 11.3423 1.89805 0
      vertex 11.1016 3.00065 7.61363
    endloop
  endfacet
  facet normal 0 0 -1
    outer loop
      vertex 11.1016 3.00065 0
      vertex 12.5497 3.39203 0
      vertex 12.8217 2.14562 0
    endloop
  endfacet
  facet normal 0 0 -1
    outer loop
      vertex 11.1016 3.00065 0
      vertex 12.8217 2.14562 0
      vertex 11.3423 1.89805 0
    endloop
  endfacet
  facet normal -0.976991 -0.213279 0
    outer loop
      vertex 11.1016 3.00065 7.61363
      vertex 11.3423 1.89805 0
      vertex 11.3423 1.89805 7.61363
    endloop
  endfacet
  facet normal 0 0 1
    outer loop
      vertex 11.1016 3.00065 7.61363
      vertex 11.3423 1.89805 7.61363
      vertex 12.9703 0.87854 7.61363
    endloop
  endfacet
  facet normal 0 0 1
    outer loop
      vertex 11.1016 3.00065 7.61363
      vertex 11.9049 3.69381 7.61363
      vertex 11.8576 3.71897 7.61363
    endloop
  endfacet
  facet normal -0 0 1
    outer loop
      vertex 11.1016 3.00065 7.61363
      vertex 12.8217 2.14562 7.61363
      vertex 11.9049 3.69381 7.61363
    endloop
  endfacet
  facet normal 0 0 1
    outer loop
      vertex 11.1016 3.00065 7.61363
      vertex 12.9703 0.87854 7.61363
      vertex 12.8217 2.14562 7.61363
    endloop
  endfacet
  facet normal 0 0 1
    outer loop
      vertex 11.1082 6.072 12
      vertex 11.5597 5.7195 12
      vertex 11.6468 5.77518 12
    endloop
  endfacet
  facet normal -0.594296 -0.761204 0.259577
    outer loop
      vertex 11.1082 6.072 12
      vertex 11.8451 5.32031 11.4828
      vertex 11.5597 5.7195 12
    endloop
  endfacet
  facet normal -0.442563 -0.832338 0.333693
    outer loop
      vertex 11.1082 6.072 12
      vertex 11.9212 3.99457 7.89647
      vertex 12.0978 3.90067 7.89647
    endloop
  endfacet
  facet normal -0.59436 -0.7612 0.259444
    outer loop
      vertex 11.1082 6.072 12
      vertex 12.0978 3.90067 7.89647
      vertex 12.1568 4.60578 10.1004
    endloop
  endfacet
  facet normal -0.594389 -0.761186 0.259418
    outer loop
      vertex 11.1082 6.072 12
      vertex 12.1568 4.60578 10.1004
      vertex 11.8451 5.32031 11.4828
    endloop
  endfacet
  facet normal 0.873009 0.487704 0
    outer loop
      vertex 11.158 6.65015 9.89096
      vertex 11.6468 5.77518 12
      vertex 11.6468 5.77518 8.37485
    endloop
  endfacet
  facet normal -0.984236 0.176862 0
    outer loop
      vertex 11.2053 -2.58694 0
      vertex 11.2053 -2.58694 7.61363
      vertex 11.4049 -1.47617 0
    endloop
  endfacet
  facet normal 0 0 -1
    outer loop
      vertex 11.2053 -2.58694 0
      vertex 11.4049 -1.47617 0
      vertex 12.6668 -2.92436 0
    endloop
  endfacet
  facet normal -0.984244 0.176815 -7.06731e-06
    outer loop
      vertex 11.2053 -2.58694 7.61363
      vertex 11.3904 -1.55658 7.61363
      vertex 11.4049 -1.47617 0
    endloop
  endfacet
  facet normal -0 0 1
    outer loop
      vertex 11.2053 -2.58694 7.61363
      vertex 12.1284 -2.70805 7.61363
      vertex 11.3904 -1.55658 7.61363
    endloop
  endfacet
  facet normal 0 0 1
    outer loop
      vertex 11.2053 -2.58694 7.61363
      vertex 12.1568 -2.7535 7.61363
      vertex 12.1284 -2.70805 7.61363
    endloop
  endfacet
  facet normal -0.977008 -0.213203 4.76986e-05
    outer loop
      vertex 11.2136 2.48782 12
      vertex 11.312 2.03665 10.8813
      vertex 11.3423 1.89805 12
    endloop
  endfacet
  facet normal 0 0 1
    outer loop
      vertex 11.2136 2.48782 12
      vertex 11.3423 1.89805 12
      vertex 11.9751 1.84114 12
    endloop
  endfacet
  facet normal 0.627928 0.739418 -0.242831
    outer loop
      vertex 11.2136 2.48782 12
      vertex 11.9751 1.84114 12
      vertex 12.9727 0.750116 11.2575
    endloop
  endfacet
  facet normal 0.627867 0.739421 -0.242981
    outer loop
      vertex 11.2136 2.48782 12
      vertex 12.9727 0.750116 11.2575
      vertex 11.312 2.03665 10.8813
    endloop
  endfacet
  facet normal 0.890518 -0.454948 0
    outer loop
      vertex 11.2725 -6.47542 0
      vertex 11.8529 -5.33934 0
      vertex 11.8529 -5.33934 7.61363
    endloop
  endfacet
  facet normal 0.890518 -0.454948 0
    outer loop
      vertex 11.2725 -6.47542 0
      vertex 11.8529 -5.33934 7.61363
      vertex 11.2725 -6.47542 7.61363
    endloop
  endfacet
  facet normal 0.890638 -0.454713 -8.8039e-05
    outer loop
      vertex 11.2725 -6.47542 9.68869
      vertex 11.3417 -6.33992 9.89899
      vertex 11.4543 -6.11947 10.4024
    endloop
  endfacet
  facet normal 0.890566 -0.454853 0
    outer loop
      vertex 11.2725 -6.47542 9.68869
      vertex 11.4543 -6.11947 10.4024
      vertex 11.2725 -6.47542 12
    endloop
  endfacet
  facet normal 0.890542 -0.454902 -1.36795e-05
    outer loop
      vertex 11.2725 -6.47542 12
      vertex 11.4543 -6.11947 10.4024
      vertex 11.5463 -5.93938 10.8813
    endloop
  endfacet
  facet normal 0.890513 -0.454959 -4.7971e-05
    outer loop
      vertex 11.2725 -6.47542 12
      vertex 11.5463 -5.93938 10.8813
      vertex 11.7794 -5.48324 12
    endloop
  endfacet
  facet normal -0.976928 -0.213571 0
    outer loop
      vertex 11.312 2.03665 10.8813
      vertex 11.3423 1.89805 10.6231
      vertex 11.3423 1.89805 12
    endloop
  endfacet
  facet normal 0.614606 0.722826 -0.315883
    outer loop
      vertex 11.312 2.03665 10.8813
      vertex 12.104 0.149308 8.10353
      vertex 11.3423 1.89805 10.6231
    endloop
  endfacet
  facet normal 0.627867 0.739416 -0.242995
    outer loop
      vertex 11.312 2.03665 10.8813
      vertex 12.9727 0.750116 11.2575
      vertex 12.975 0.624532 10.8813
    endloop
  endfacet
  facet normal 0.614038 0.72313 -0.316293
    outer loop
      vertex 11.312 2.03665 10.8813
      vertex 12.975 0.624532 10.8813
      vertex 12.9832 0.180013 9.88093
    endloop
  endfacet
  facet normal 0.614065 0.723128 -0.316243
    outer loop
      vertex 11.312 2.03665 10.8813
      vertex 12.9832 0.180013 9.88093
      vertex 12.104 0.149308 8.10353
    endloop
  endfacet
  facet normal -0.993199 -0.116431 0
    outer loop
      vertex 11.3423 1.89805 0
      vertex 11.4305 1.14567 7.61363
      vertex 11.3423 1.89805 7.61363
    endloop
  endfacet
  facet normal -0.993199 -0.116432 -1.19617e-07
    outer loop
      vertex 11.3423 1.89805 0
      vertex 11.4737 0.777169 0
      vertex 11.4305 1.14567 7.61363
    endloop
  endfacet
  facet normal 0 0 -1
    outer loop
      vertex 11.3423 1.89805 0
      vertex 12.8217 2.14562 0
      vertex 12.9703 0.87854 0
    endloop
  endfacet
  facet normal 0 0 -1
    outer loop
      vertex 11.3423 1.89805 0
      vertex 12.9703 0.87854 0
      vertex 11.4737 0.777169 0
    endloop
  endfacet
  facet normal 0 0 1
    outer loop
      vertex 11.3423 1.89805 7.61363
      vertex 11.4305 1.14567 7.61363
      vertex 12.9703 0.87854 7.61363
    endloop
  endfacet
  facet normal -0.993199 -0.116429 3.94397e-06
    outer loop
      vertex 11.3423 1.89805 10.6231
      vertex 11.4279 1.16779 9.11966
      vertex 11.4737 0.777169 11.333
    endloop
  endfacet
  facet normal -0.993199 -0.116432 0
    outer loop
      vertex 11.3423 1.89805 10.6231
      vertex 11.4737 0.777169 11.333
      vertex 11.3423 1.89805 12
    endloop
  endfacet
  facet normal 0.613999 0.72316 -0.316299
    outer loop
      vertex 11.3423 1.89805 10.6231
      vertex 12.104 0.149308 8.10353
      vertex 11.4279 1.16779 9.11966
    endloop
  endfacet
  facet normal 0 0 1
    outer loop
      vertex 11.3423 1.89805 12
      vertex 11.4327 1.12673 12
      vertex 11.9751 1.84114 12
    endloop
  endfacet
  facet normal -0.993202 -0.116405 -4.59575e-05
    outer loop
      vertex 11.3423 1.89805 12
      vertex 11.4737 0.777169 11.333
      vertex 11.4327 1.12673 12
    endloop
  endfacet
  facet normal -0.984127 0.177464 0
    outer loop
      vertex 11.3904 -1.55658 7.61363
      vertex 11.4049 -1.47617 7.64673
      vertex 11.4049 -1.47617 0
    endloop
  endfacet
  facet normal -0.430689 -0.276037 0.85925
    outer loop
      vertex 11.3904 -1.55658 7.61363
      vertex 12.1284 -2.70805 7.61363
      vertex 11.4049 -1.47617 7.64673
    endloop
  endfacet
  facet normal -0.996848 0.0793383 0
    outer loop
      vertex 11.4049 -1.47617 0
      vertex 11.4049 -1.47617 7.64673
      vertex 11.4204 -1.28142 7.71716
    endloop
  endfacet
  facet normal -0.996826 0.0796088 -6.86926e-06
    outer loop
      vertex 11.4049 -1.47617 0
      vertex 11.4204 -1.28142 7.71716
      vertex 11.4336 -1.11612 7.89647
    endloop
  endfacet
  facet normal -0.996836 0.0794828 -1.08554e-06
    outer loop
      vertex 11.4049 -1.47617 0
      vertex 11.4336 -1.11612 7.89647
      vertex 11.4946 -0.351194 0
    endloop
  endfacet
  facet normal 0 0 -1
    outer loop
      vertex 11.4049 -1.47617 0
      vertex 11.4946 -0.351194 0
      vertex 12.9939 -0.397001 0
    endloop
  endfacet
  facet normal 0 0 -1
    outer loop
      vertex 11.4049 -1.47617 0
      vertex 12.8925 -1.66872 0
      vertex 12.6668 -2.92436 0
    endloop
  endfacet
  facet normal 0 0 -1
    outer loop
      vertex 11.4049 -1.47617 0
      vertex 12.9939 -0.397001 0
      vertex 12.8925 -1.66872 0
    endloop
  endfacet
  facet normal -0.431008 -0.276219 0.859032
    outer loop
      vertex 11.4049 -1.47617 7.64673
      vertex 12.1284 -2.70805 7.61363
      vertex 12.2507 -2.57691 7.71716
    endloop
  endfacet
  facet normal -0.431128 -0.276317 0.85894
    outer loop
      vertex 11.4049 -1.47617 7.64673
      vertex 12.2507 -2.57691 7.71716
      vertex 11.4204 -1.28142 7.71716
    endloop
  endfacet
  facet normal -0.734792 -0.47094 0.488156
    outer loop
      vertex 11.4204 -1.28142 7.71716
      vertex 12.2507 -2.57691 7.71716
      vertex 12.3213 -2.5012 7.89647
    endloop
  endfacet
  facet normal -0.73477 -0.470916 0.488212
    outer loop
      vertex 11.4204 -1.28142 7.71716
      vertex 12.3213 -2.5012 7.89647
      vertex 11.4336 -1.11612 7.89647
    endloop
  endfacet
  facet normal -0.993196 -0.116451 0
    outer loop
      vertex 11.4279 1.16779 9.11966
      vertex 11.4737 0.777169 8.23866
      vertex 11.4737 0.777169 11.333
    endloop
  endfacet
  facet normal 0.646414 0.709387 -0.280926
    outer loop
      vertex 11.4279 1.16779 9.11966
      vertex 12.104 0.149308 8.10353
      vertex 11.4737 0.777169 8.23866
    endloop
  endfacet
  facet normal 0.336746 0.369544 0.866048
    outer loop
      vertex 11.4305 1.14567 7.61363
      vertex 11.4623 0.874064 7.71716
      vertex 12.2969 0.356167 7.61363
    endloop
  endfacet
  facet normal -0.993215 -0.11629 -7.09634e-06
    outer loop
      vertex 11.4305 1.14567 7.61363
      vertex 11.4737 0.777169 0
      vertex 11.4623 0.874064 7.71716
    endloop
  endfacet
  facet normal 0 0 1
    outer loop
      vertex 11.4305 1.14567 7.61363
      vertex 12.2969 0.356167 7.61363
      vertex 12.9703 0.87854 7.61363
    endloop
  endfacet
  facet normal -0.636573 -0.69849 0.326935
    outer loop
      vertex 11.4327 1.12673 12
      vertex 11.4737 0.777169 11.333
      vertex 11.9126 0.68937 12
    endloop
  endfacet
  facet normal 0 0 1
    outer loop
      vertex 11.4327 1.12673 12
      vertex 11.9126 0.68937 12
      vertex 12.9475 1.073 12
    endloop
  endfacet
  facet normal -0 0 1
    outer loop
      vertex 11.4327 1.12673 12
      vertex 12.9475 1.073 12
      vertex 11.9751 1.84114 12
    endloop
  endfacet
  facet normal -0.996835 0.0794939 0
    outer loop
      vertex 11.4336 -1.11612 7.89647
      vertex 11.4946 -0.351194 9.48223
      vertex 11.4946 -0.351194 0
    endloop
  endfacet
  facet normal -0.808031 -0.517868 0.280888
    outer loop
      vertex 11.4336 -1.11612 7.89647
      vertex 12.3213 -2.5012 7.89647
      vertex 11.4946 -0.351194 9.48223
    endloop
  endfacet
  facet normal -0.99315 -0.116847 0
    outer loop
      vertex 11.4623 0.874064 7.71716
      vertex 11.4737 0.777169 0
      vertex 11.4737 0.777169 7.82796
    endloop
  endfacet
  facet normal 0.583348 0.640205 0.499842
    outer loop
      vertex 11.4623 0.874064 7.71716
      vertex 11.4737 0.777169 7.82796
      vertex 12.1746 0.225024 7.71716
    endloop
  endfacet
  facet normal 0.336776 0.369601 0.866012
    outer loop
      vertex 11.4623 0.874064 7.71716
      vertex 12.1746 0.225024 7.71716
      vertex 12.2969 0.356167 7.61363
    endloop
  endfacet
  facet normal -0.999831 -0.0183671 0
    outer loop
      vertex 11.4737 0.777169 0
      vertex 11.4747 0.722733 7.89647
      vertex 11.4737 0.777169 7.82796
    endloop
  endfacet
  facet normal -0.999829 -0.0185192 0
    outer loop
      vertex 11.4737 0.777169 0
      vertex 11.4946 -0.351194 0
      vertex 11.4946 -0.351194 9.48223
    endloop
  endfacet
  facet normal -0.999828 -0.0185286 -1.11364e-06
    outer loop
      vertex 11.4737 0.777169 0
      vertex 11.4946 -0.351194 9.48223
      vertex 11.4747 0.722733 7.89647
    endloop
  endfacet
  facet normal 0 0 -1
    outer loop
      vertex 11.4737 0.777169 0
      vertex 12.9703 0.87854 0
      vertex 12.9939 -0.397001 0
    endloop
  endfacet
  facet normal 0 0 -1
    outer loop
      vertex 11.4737 0.777169 0
      vertex 12.9939 -0.397001 0
      vertex 11.4946 -0.351194 0
    endloop
  endfacet
  facet normal 0.583261 0.640094 0.500086
    outer loop
      vertex 11.4737 0.777169 7.82796
      vertex 11.4747 0.722733 7.89647
      vertex 12.104 0.149308 7.89647
    endloop
  endfacet
  facet normal 0.583313 0.640134 0.499974
    outer loop
      vertex 11.4737 0.777169 7.82796
      vertex 12.104 0.149308 7.89647
      vertex 12.1746 0.225024 7.71716
    endloop
  endfacet
  facet normal -0.999829 -0.0184725 4.24571e-05
    outer loop
      vertex 11.4737 0.777169 8.23866
      vertex 11.4747 0.722733 8.10353
      vertex 11.4946 -0.351194 9.48223
    endloop
  endfacet
  facet normal -0.99983 -0.0184326 0
    outer loop
      vertex 11.4737 0.777169 8.23866
      vertex 11.4756 0.674108 11.1166
      vertex 11.4737 0.777169 11.333
    endloop
  endfacet
  facet normal -0.999829 -0.0184712 -1.3828e-06
    outer loop
      vertex 11.4737 0.777169 8.23866
      vertex 11.4788 0.50091 10.9088
      vertex 11.4756 0.674108 11.1166
    endloop
  endfacet
  facet normal -0.999821 -0.0189251 -4.83698e-05
    outer loop
      vertex 11.4737 0.777169 8.23866
      vertex 11.482 0.332263 10.7484
      vertex 11.4788 0.50091 10.9088
    endloop
  endfacet
  facet normal -0.99983 -0.0184604 3.40428e-05
    outer loop
      vertex 11.4737 0.777169 8.23866
      vertex 11.4857 0.13114 10.3535
      vertex 11.482 0.332263 10.7484
    endloop
  endfacet
  facet normal -0.999825 -0.0187142 -4.35247e-05
    outer loop
      vertex 11.4737 0.777169 8.23866
      vertex 11.4886 -0.0231345 10.0695
      vertex 11.4857 0.13114 10.3535
    endloop
  endfacet
  facet normal -0.99983 -0.0184305 8.05617e-05
    outer loop
      vertex 11.4737 0.777169 8.23866
      vertex 11.4946 -0.351194 9.48223
      vertex 11.4886 -0.0231345 10.0695
    endloop
  endfacet
  facet normal 0.646395 0.709381 -0.280985
    outer loop
      vertex 11.4737 0.777169 8.23866
      vertex 12.104 0.149308 8.10353
      vertex 11.4747 0.722733 8.10353
    endloop
  endfacet
  facet normal -0.636665 -0.698371 0.327011
    outer loop
      vertex 11.4737 0.777169 11.333
      vertex 11.4756 0.674108 11.1166
      vertex 11.9126 0.68937 12
    endloop
  endfacet
  facet normal 0.67353 0.73916 -0
    outer loop
      vertex 11.4747 0.722733 7.89647
      vertex 11.4747 0.722733 8.10353
      vertex 12.104 0.149308 7.89647
    endloop
  endfacet
  facet normal -0.999828 -0.0185269 0
    outer loop
      vertex 11.4747 0.722733 7.89647
      vertex 11.4946 -0.351194 9.48223
      vertex 11.4747 0.722733 8.10353
    endloop
  endfacet
  facet normal 0.67353 0.73916 0
    outer loop
      vertex 11.4747 0.722733 8.10353
      vertex 12.104 0.149308 8.10353
      vertex 12.104 0.149308 7.89647
    endloop
  endfacet
  facet normal -0.779429 -0.487099 0.393986
    outer loop
      vertex 11.4756 0.674108 11.1166
      vertex 11.4788 0.50091 10.9088
      vertex 12.0186 0.51976 12
    endloop
  endfacet
  facet normal -0.779424 -0.487111 0.393981
    outer loop
      vertex 11.4756 0.674108 11.1166
      vertex 12.0186 0.51976 12
      vertex 11.9126 0.68937 12
    endloop
  endfacet
  facet normal -0.816392 -0.406051 0.410642
    outer loop
      vertex 11.4788 0.50091 10.9088
      vertex 11.482 0.332263 10.7484
      vertex 12.9221 -1.2974 12
    endloop
  endfacet
  facet normal -0.816361 -0.405899 0.410853
    outer loop
      vertex 11.4788 0.50091 10.9088
      vertex 12.9221 -1.2974 12
      vertex 12.0186 0.51976 12
    endloop
  endfacet
  facet normal -0.834373 -0.49429 0.243925
    outer loop
      vertex 11.482 0.332263 10.7484
      vertex 11.4857 0.13114 10.3535
      vertex 12.4273 -2.67081 7.89647
    endloop
  endfacet
  facet normal -0.83441 -0.494253 0.243874
    outer loop
      vertex 11.482 0.332263 10.7484
      vertex 12.4273 -2.67081 7.89647
      vertex 12.6734 -2.88772 8.29889
    endloop
  endfacet
  facet normal -0.834423 -0.494241 0.243852
    outer loop
      vertex 11.482 0.332263 10.7484
      vertex 12.6734 -2.88772 8.29889
      vertex 12.8925 -1.66872 11.5193
    endloop
  endfacet
  facet normal -0.834423 -0.494241 0.243853
    outer loop
      vertex 11.482 0.332263 10.7484
      vertex 12.8925 -1.66872 11.5193
      vertex 12.8963 -1.62106 11.6289
    endloop
  endfacet
  facet normal -0.816379 -0.405926 0.410791
    outer loop
      vertex 11.482 0.332263 10.7484
      vertex 12.8963 -1.62106 11.6289
      vertex 12.9221 -1.2974 12
    endloop
  endfacet
  facet normal -0.816923 -0.510256 0.26884
    outer loop
      vertex 11.4857 0.13114 10.3535
      vertex 11.4886 -0.0231345 10.0695
      vertex 12.3213 -2.5012 7.89647
    endloop
  endfacet
  facet normal -0.816734 -0.510429 0.269089
    outer loop
      vertex 11.4857 0.13114 10.3535
      vertex 12.3213 -2.5012 7.89647
      vertex 12.4273 -2.67081 7.89647
    endloop
  endfacet
  facet normal -0.807897 -0.517967 0.281092
    outer loop
      vertex 11.4886 -0.0231345 10.0695
      vertex 11.4946 -0.351194 9.48223
      vertex 12.3213 -2.5012 7.89647
    endloop
  endfacet
  facet normal 0.872928 0.48785 0
    outer loop
      vertex 11.5127 6.01513 7.61363
      vertex 11.6468 5.77518 7.71245
      vertex 11.6468 5.77518 0
    endloop
  endfacet
  facet normal -0 0 1
    outer loop
      vertex 11.5597 5.7195 12
      vertex 11.7164 5.6155 12
      vertex 11.6468 5.77518 12
    endloop
  endfacet
  facet normal -0.523876 -0.78934 0.320152
    outer loop
      vertex 11.5597 5.7195 12
      vertex 11.8451 5.32031 11.4828
      vertex 11.7164 5.6155 12
    endloop
  endfacet
  facet normal 0.916621 0.399758 -0
    outer loop
      vertex 11.6468 5.77518 0
      vertex 11.6468 5.77518 7.71245
      vertex 12.1568 4.60578 0
    endloop
  endfacet
  facet normal 0.918821 0.394673 0.000916473
    outer loop
      vertex 11.6468 5.77518 7.71245
      vertex 11.6514 5.76446 7.71716
      vertex 12.1568 4.60578 0
    endloop
  endfacet
  facet normal 0.916712 0.399549 -0
    outer loop
      vertex 11.6468 5.77518 8.37485
      vertex 11.6468 5.77518 12
      vertex 11.7107 5.62857 8.10353
    endloop
  endfacet
  facet normal 0.916705 0.399566 6.20708e-05
    outer loop
      vertex 11.6468 5.77518 12
      vertex 11.7164 5.6155 12
      vertex 11.8451 5.32031 11.4828
    endloop
  endfacet
  facet normal 0.916686 0.399608 1.73153e-05
    outer loop
      vertex 11.6468 5.77518 12
      vertex 11.8451 5.32031 11.4828
      vertex 12.1568 4.60578 0
    endloop
  endfacet
  facet normal 0.916564 0.399889 -1.5217e-05
    outer loop
      vertex 11.6468 5.77518 12
      vertex 12.1568 4.60578 0
      vertex 11.7107 5.62857 8.10353
    endloop
  endfacet
  facet normal 0.916544 0.399934 -2.25538e-05
    outer loop
      vertex 11.6514 5.76446 7.71716
      vertex 11.7107 5.62857 7.89647
      vertex 12.1568 4.60578 0
    endloop
  endfacet
  facet normal 0.916608 0.399788 -0
    outer loop
      vertex 11.7107 5.62857 7.89647
      vertex 11.7107 5.62857 8.10353
      vertex 12.1568 4.60578 0
    endloop
  endfacet
  facet normal 0.916584 0.399842 0
    outer loop
      vertex 11.8451 5.32031 11.4828
      vertex 12.1568 4.60578 10.1004
      vertex 12.1568 4.60578 0
    endloop
  endfacet
  facet normal 0.930809 -0.365507 0
    outer loop
      vertex 11.8529 -5.33934 0
      vertex 12.3192 -4.15185 0
      vertex 12.3192 -4.15185 7.61363
    endloop
  endfacet
  facet normal 0.930809 -0.365507 0
    outer loop
      vertex 11.8529 -5.33934 0
      vertex 12.3192 -4.15185 7.61363
      vertex 11.8529 -5.33934 7.61363
    endloop
  endfacet
  facet normal -0.240926 -0.452933 0.858374
    outer loop
      vertex 11.8576 3.71897 7.61363
      vertex 11.9049 3.69381 7.61363
      vertex 12.0272 3.82496 7.71716
    endloop
  endfacet
  facet normal -0.240825 -0.453058 0.858336
    outer loop
      vertex 11.8576 3.71897 7.61363
      vertex 12.0272 3.82496 7.71716
      vertex 11.8979 3.89369 7.71716
    endloop
  endfacet
  facet normal -0.409936 -0.771203 0.48703
    outer loop
      vertex 11.8979 3.89369 7.71716
      vertex 12.0272 3.82496 7.71716
      vertex 12.0978 3.90067 7.89647
    endloop
  endfacet
  facet normal -0.41001 -0.771115 0.487108
    outer loop
      vertex 11.8979 3.89369 7.71716
      vertex 12.0978 3.90067 7.89647
      vertex 11.9212 3.99457 7.89647
    endloop
  endfacet
  facet normal -0.308623 -0.395194 0.865201
    outer loop
      vertex 11.9049 3.69381 7.61363
      vertex 12.6027 3.14887 7.61363
      vertex 12.0272 3.82496 7.71716
    endloop
  endfacet
  facet normal 0 0 1
    outer loop
      vertex 11.9049 3.69381 7.61363
      vertex 12.8217 2.14562 7.61363
      vertex 12.6027 3.14887 7.61363
    endloop
  endfacet
  facet normal 0 0 1
    outer loop
      vertex 11.9126 0.68937 12
      vertex 12.0186 0.51976 12
      vertex 12.9939 -0.397001 12
    endloop
  endfacet
  facet normal 0 0 1
    outer loop
      vertex 11.9126 0.68937 12
      vertex 12.9703 0.87854 12
      vertex 12.9475 1.073 12
    endloop
  endfacet
  facet normal -0 0 1
    outer loop
      vertex 11.9126 0.68937 12
      vertex 12.9939 -0.397001 12
      vertex 12.9703 0.87854 12
    endloop
  endfacet
  facet normal 0.590343 0.747324 -0.30496
    outer loop
      vertex 11.9751 1.84114 12
      vertex 12.9475 1.073 12
      vertex 12.9703 0.87854 11.5676
    endloop
  endfacet
  facet normal 0.590359 0.747326 -0.304926
    outer loop
      vertex 11.9751 1.84114 12
      vertex 12.9703 0.87854 11.5676
      vertex 12.9727 0.750116 11.2575
    endloop
  endfacet
  facet normal 0 0 1
    outer loop
      vertex 12.0186 0.51976 12
      vertex 12.9221 -1.2974 12
      vertex 12.9939 -0.397001 12
    endloop
  endfacet
  facet normal -0.533525 -0.68323 0.498546
    outer loop
      vertex 12.0272 3.82496 7.71716
      vertex 12.5389 3.42538 7.71716
      vertex 12.0978 3.90067 7.89647
    endloop
  endfacet
  facet normal -0.308573 -0.395157 0.865236
    outer loop
      vertex 12.0272 3.82496 7.71716
      vertex 12.6027 3.14887 7.61363
      vertex 12.5389 3.42538 7.71716
    endloop
  endfacet
  facet normal -0.594389 -0.761179 0.259438
    outer loop
      vertex 12.0978 3.90067 7.89647
      vertex 12.4822 3.6005 7.89647
      vertex 12.1568 4.60578 10.1004
    endloop
  endfacet
  facet normal -0.533518 -0.683227 0.498557
    outer loop
      vertex 12.0978 3.90067 7.89647
      vertex 12.5389 3.42538 7.71716
      vertex 12.4822 3.6005 7.89647
    endloop
  endfacet
  facet normal 0.798489 0.602009 -0
    outer loop
      vertex 12.104 0.149308 7.89647
      vertex 12.104 0.149308 8.10353
      vertex 12.9482 -0.970418 8.10353
    endloop
  endfacet
  facet normal 0.694128 0.523327 0.494282
    outer loop
      vertex 12.104 0.149308 7.89647
      vertex 12.9482 -0.970418 7.89647
      vertex 12.1746 0.225024 7.71716
    endloop
  endfacet
  facet normal 0.798489 0.602009 0
    outer loop
      vertex 12.104 0.149308 7.89647
      vertex 12.9482 -0.970418 8.10353
      vertex 12.9482 -0.970418 7.89647
    endloop
  endfacet
  facet normal 0.740014 0.557886 -0.375689
    outer loop
      vertex 12.104 0.149308 8.10353
      vertex 12.9832 0.180013 9.88093
      vertex 12.9939 -0.397001 9.04516
    endloop
  endfacet
  facet normal 0.740005 0.557915 -0.375664
    outer loop
      vertex 12.104 0.149308 8.10353
      vertex 12.9939 -0.397001 9.04516
      vertex 12.9482 -0.970418 8.10353
    endloop
  endfacet
  facet normal -0.435068 -0.271858 0.858376
    outer loop
      vertex 12.1284 -2.70805 7.61363
      vertex 12.1568 -2.7535 7.61363
      vertex 12.3283 -2.70107 7.71716
    endloop
  endfacet
  facet normal -0.435059 -0.271912 0.858363
    outer loop
      vertex 12.1284 -2.70805 7.61363
      vertex 12.3283 -2.70107 7.71716
      vertex 12.2507 -2.57691 7.71716
    endloop
  endfacet
  facet normal 0.9514 0.307959 -0
    outer loop
      vertex 12.1568 4.60578 0
      vertex 12.1568 4.60578 10.1004
      vertex 12.4822 3.6005 7.89647
    endloop
  endfacet
  facet normal 0.951378 0.308026 9.32944e-06
    outer loop
      vertex 12.1568 4.60578 0
      vertex 12.4822 3.6005 7.89647
      vertex 12.5389 3.42538 7.71716
    endloop
  endfacet
  facet normal 0.95136 0.30808 1.85662e-05
    outer loop
      vertex 12.1568 4.60578 0
      vertex 12.5389 3.42538 7.71716
      vertex 12.5497 3.39203 7.70577
    endloop
  endfacet
  facet normal 0.951395 0.307974 0
    outer loop
      vertex 12.1568 4.60578 0
      vertex 12.5497 3.39203 7.70577
      vertex 12.5497 3.39203 0
    endloop
  endfacet
  facet normal -0.464842 -0.187965 0.865212
    outer loop
      vertex 12.1568 -2.7535 7.61363
      vertex 12.4852 -3.56564 7.61363
      vertex 12.3283 -2.70107 7.71716
    endloop
  endfacet
  facet normal 0.694158 0.523338 0.494228
    outer loop
      vertex 12.1746 0.225024 7.71716
      vertex 12.9482 -0.970418 7.89647
      vertex 12.9604 -0.817264 7.71716
    endloop
  endfacet
  facet normal 0.403799 0.304431 0.86271
    outer loop
      vertex 12.1746 0.225024 7.71716
      vertex 12.9604 -0.817264 7.71716
      vertex 12.9816 -0.551996 7.61363
    endloop
  endfacet
  facet normal 0.40382 0.304456 0.862691
    outer loop
      vertex 12.1746 0.225024 7.71716
      vertex 12.9816 -0.551996 7.61363
      vertex 12.2969 0.356167 7.61363
    endloop
  endfacet
  facet normal -0.74062 -0.462887 0.48705
    outer loop
      vertex 12.2507 -2.57691 7.71716
      vertex 12.3283 -2.70107 7.71716
      vertex 12.3213 -2.5012 7.89647
    endloop
  endfacet
  facet normal 0 0 1
    outer loop
      vertex 12.2969 0.356167 7.61363
      vertex 12.9816 -0.551996 7.61363
      vertex 12.9939 -0.397001 7.61363
    endloop
  endfacet
  facet normal -0 0 1
    outer loop
      vertex 12.2969 0.356167 7.61363
      vertex 12.9939 -0.397001 7.61363
      vertex 12.9703 0.87854 7.61363
    endloop
  endfacet
  facet normal 0.962166 -0.272466 0
    outer loop
      vertex 12.3192 -4.15185 0
      vertex 12.6668 -2.92436 0
      vertex 12.3192 -4.15185 7.61363
    endloop
  endfacet
  facet normal 0.962167 -0.272462 7.01923e-07
    outer loop
      vertex 12.3192 -4.15185 7.61363
      vertex 12.6668 -2.92436 0
      vertex 12.4852 -3.56564 7.61363
    endloop
  endfacet
  facet normal -0.74064 -0.462873 0.487033
    outer loop
      vertex 12.3213 -2.5012 7.89647
      vertex 12.3283 -2.70107 7.71716
      vertex 12.4273 -2.67081 7.89647
    endloop
  endfacet
  facet normal -0.464781 -0.187958 0.865246
    outer loop
      vertex 12.3283 -2.70107 7.71716
      vertex 12.4852 -3.56564 7.61363
      vertex 12.5646 -3.28539 7.71716
    endloop
  endfacet
  facet normal -0.803646 -0.324996 0.498529
    outer loop
      vertex 12.3283 -2.70107 7.71716
      vertex 12.5646 -3.28539 7.71716
      vertex 12.6104 -3.12359 7.89647
    endloop
  endfacet
  facet normal -0.80364 -0.324984 0.498546
    outer loop
      vertex 12.3283 -2.70107 7.71716
      vertex 12.6104 -3.12359 7.89647
      vertex 12.4273 -2.67081 7.89647
    endloop
  endfacet
  facet normal -0.870905 -0.352186 0.342769
    outer loop
      vertex 12.4273 -2.67081 7.89647
      vertex 12.6104 -3.12359 7.89647
      vertex 12.6734 -2.88772 8.29889
    endloop
  endfacet
  facet normal 0.962132 -0.272586 -1.05969e-05
    outer loop
      vertex 12.4852 -3.56564 7.61363
      vertex 12.6668 -2.92436 0
      vertex 12.5646 -3.28539 7.71716
    endloop
  endfacet
  facet normal -0.305987 -0.394941 0.866252
    outer loop
      vertex 12.5389 3.42538 7.71716
      vertex 12.6027 3.14887 7.61363
      vertex 12.5497 3.39203 7.70577
    endloop
  endfacet
  facet normal 0.97706 0.212963 -0
    outer loop
      vertex 12.5497 3.39203 0
      vertex 12.5497 3.39203 7.70577
      vertex 12.6027 3.14887 7.61363
    endloop
  endfacet
  facet normal 0.976994 0.213268 1.02056e-05
    outer loop
      vertex 12.5497 3.39203 0
      vertex 12.6027 3.14887 7.61363
      vertex 12.8217 2.14562 7.61363
    endloop
  endfacet
  facet normal 0.977007 0.213209 0
    outer loop
      vertex 12.5497 3.39203 0
      vertex 12.8217 2.14562 7.61363
      vertex 12.8217 2.14562 0
    endloop
  endfacet
  facet normal 0.962194 -0.272365 5.75834e-07
    outer loop
      vertex 12.5646 -3.28539 7.71716
      vertex 12.6668 -2.92436 0
      vertex 12.6104 -3.12359 7.89647
    endloop
  endfacet
  facet normal 0.962188 -0.272386 0
    outer loop
      vertex 12.6104 -3.12359 7.89647
      vertex 12.6668 -2.92436 0
      vertex 12.6668 -2.92436 8.24451
    endloop
  endfacet
  facet normal -0.872145 -0.350106 0.341744
    outer loop
      vertex 12.6104 -3.12359 7.89647
      vertex 12.6668 -2.92436 8.24451
      vertex 12.6734 -2.88772 8.29889
    endloop
  endfacet
  facet normal 0.984161 -0.177278 0
    outer loop
      vertex 12.6668 -2.92436 0
      vertex 12.6734 -2.88772 8.29889
      vertex 12.6668 -2.92436 8.24451
    endloop
  endfacet
  facet normal 0.984226 -0.176914 -1.66008e-06
    outer loop
      vertex 12.6668 -2.92436 0
      vertex 12.8925 -1.66872 0
      vertex 12.6734 -2.88772 8.29889
    endloop
  endfacet
  facet normal 0.984228 -0.176903 0
    outer loop
      vertex 12.6734 -2.88772 8.29889
      vertex 12.8925 -1.66872 0
      vertex 12.8925 -1.66872 11.5193
    endloop
  endfacet
  facet normal 0.993193 0.116479 -0
    outer loop
      vertex 12.8217 2.14562 0
      vertex 12.8217 2.14562 7.61363
      vertex 12.9703 0.87854 7.61363
    endloop
  endfacet
  facet normal 0.993193 0.116479 0
    outer loop
      vertex 12.8217 2.14562 0
      vertex 12.9703 0.87854 7.61363
      vertex 12.9703 0.87854 0
    endloop
  endfacet
  facet normal 0.996834 -0.0795124 0
    outer loop
      vertex 12.8925 -1.66872 0
      vertex 12.9482 -0.970418 7.89647
      vertex 12.9482 -0.970418 8.10353
    endloop
  endfacet
  facet normal 0.996834 -0.0795124 0
    outer loop
      vertex 12.8925 -1.66872 0
      vertex 12.9482 -0.970418 8.10353
      vertex 12.8925 -1.66872 11.5193
    endloop
  endfacet
  facet normal 0.996842 -0.0794167 -8.51005e-06
    outer loop
      vertex 12.8925 -1.66872 0
      vertex 12.9604 -0.817264 7.71716
      vertex 12.9482 -0.970418 7.89647
    endloop
  endfacet
  facet normal 0.996822 -0.0796581 1.8286e-05
    outer loop
      vertex 12.8925 -1.66872 0
      vertex 12.9816 -0.551996 7.61363
      vertex 12.9604 -0.817264 7.71716
    endloop
  endfacet
  facet normal 0.996836 -0.0794823 0
    outer loop
      vertex 12.8925 -1.66872 0
      vertex 12.9939 -0.397001 0
      vertex 12.9939 -0.397001 7.61363
    endloop
  endfacet
  facet normal 0.996866 -0.0791087 -6.28064e-05
    outer loop
      vertex 12.8925 -1.66872 0
      vertex 12.9939 -0.397001 7.61363
      vertex 12.9816 -0.551996 7.61363
    endloop
  endfacet
  facet normal 0.996838 -0.0794625 1.02593e-05
    outer loop
      vertex 12.8925 -1.66872 11.5193
      vertex 12.9482 -0.970418 8.10353
      vertex 12.9939 -0.397001 9.04516
    endloop
  endfacet
  facet normal 0.996836 -0.0794809 7.43081e-07
    outer loop
      vertex 12.8925 -1.66872 11.5193
      vertex 12.9939 -0.397001 9.04516
      vertex 12.8963 -1.62106 11.6289
    endloop
  endfacet
  facet normal 0.996836 -0.0794825 0
    outer loop
      vertex 12.8963 -1.62106 11.6289
      vertex 12.9939 -0.397001 9.04516
      vertex 12.9939 -0.397001 12
    endloop
  endfacet
  facet normal 0.996836 -0.0794901 2.53396e-05
    outer loop
      vertex 12.8963 -1.62106 11.6289
      vertex 12.9939 -0.397001 12
      vertex 12.9221 -1.2974 12
    endloop
  endfacet
  facet normal 0.993197 0.11645 0
    outer loop
      vertex 12.9475 1.073 12
      vertex 12.9703 0.87854 12
      vertex 12.9703 0.87854 11.5676
    endloop
  endfacet
  facet normal 0.999829 0.0184988 -0
    outer loop
      vertex 12.9703 0.87854 0
      vertex 12.9703 0.87854 7.61363
      vertex 12.9939 -0.397001 0
    endloop
  endfacet
  facet normal 0.999829 0.0184988 0
    outer loop
      vertex 12.9703 0.87854 7.61363
      vertex 12.9939 -0.397001 7.61363
      vertex 12.9939 -0.397001 0
    endloop
  endfacet
  facet normal 0.999829 0.0184988 -0
    outer loop
      vertex 12.9703 0.87854 11.5676
      vertex 12.9703 0.87854 12
      vertex 12.9939 -0.397001 12
    endloop
  endfacet
  facet normal 0.999828 0.0185217 6.75868e-05
    outer loop
      vertex 12.9703 0.87854 11.5676
      vertex 12.9939 -0.397001 12
      vertex 12.9727 0.750116 11.2575
    endloop
  endfacet
  facet normal 0.999822 0.0188436 -0.000177746
    outer loop
      vertex 12.9727 0.750116 11.2575
      vertex 12.9832 0.180013 9.88093
      vertex 12.975 0.624532 10.8813
    endloop
  endfacet
  facet normal 0.99983 0.0184646 -2.06993e-05
    outer loop
      vertex 12.9727 0.750116 11.2575
      vertex 12.9939 -0.397001 12
      vertex 12.9832 0.180013 9.88093
    endloop
  endfacet
  facet normal 0.999828 0.0185406 0
    outer loop
      vertex 12.9832 0.180013 9.88093
      vertex 12.9939 -0.397001 12
      vertex 12.9939 -0.397001 9.04516
    endloop
  endfacet
endsolid OpenSCAD_Model
